# xmcd
#
# Track frame offsets:
#	150
#	24821
#	49942
#	72939
#	97065
#	132352
#	153767
#	171693
#	191682
#	211244
#	225753
#
# Disc length: 3509 seconds
# Revision: 0
# Processed by: cddbd v1.5.2PL0 Copyright (c) Steve Scherf et al.
# Submitted via: dBpowerAMP V12.0
#
DISCID=8f0db30b
DTITLE=Phantom Limb - Phantom Limb
DYEAR=2009
DGENRE=Pop
TTITLE0=Don't Say a Word
TTITLE1=Withering Bones
TTITLE2=I'll Never Be the Same Again
TTITLE3=My Love Has Gone
TTITLE4=Playing With Death
TTITLE5=Run
TTITLE6=Good Fortune
TTITLE7=We Will Carry
TTITLE8=Spring Flowers
TTITLE9=Draw The Line
TTITLE10=The Hard Way
EXTD=
EXTT0=
EXTT1=
EXTT2=
EXTT3=
EXTT4=
EXTT5=
EXTT6=
EXTT7=
EXTT8=
EXTT9=
EXTT10=
PLAYORDER=
